<svg version="1.1" xmlns="http://www.w3.org/2000/svg" xmlns:xlink="http://www.w3.org/1999/xlink" x="0px" y="0px" width="24px"
	 height="30px" viewBox="0 0 24 30" xml:space="preserve">
<g>
	<path d="M12,0C7.1,0,3.1,4,3.1,8.9c0,1.9,0.6,3.7,1.6,5.1l6.2,10.7c0.9,1.1,1.4,0.9,2.2-0.1L19.9,13c0.1-0.3,0.2-0.5,0.3-0.8
		c0.4-1,0.7-2.2,0.7-3.3C20.9,4,16.9,0,12,0z M12,4.2c2.6,0,4.7,2.1,4.7,4.7c0,2.6-2.1,4.7-4.7,4.7s-4.7-2.1-4.7-4.7S9.4,4.2,12,4.2
		z"/>
	<path d="M17.7,14.7L17.7,14.7C17.7,14.7,17.7,14.7,17.7,14.7C17.7,14.7,17.7,14.7,17.7,14.7L17.7,14.7z"/>
	<path d="M7.2,20.7C3,21.3,0,22.7,0,24.9C0,27.7,5,30,12,30s12-2.3,12-5.1c0-2.1-3-3.5-7.2-4.1c-0.2,0.3-0.4,0.7-0.6,1
		c3.2,0.4,5.4,1.4,5.4,2.5c0,1.5-4.3,2.7-9.6,2.7s-9.6-1.2-9.6-2.7c0-1.1,2.2-2,5.4-2.5C7.6,21.4,7.4,21.1,7.2,20.7z"/>
</g>
</svg>
