<!-- Generator: Adobe Illustrator 23.0.3, SVG Export Plug-In  -->
<svg version="1.1" xmlns="http://www.w3.org/2000/svg" xmlns:xlink="http://www.w3.org/1999/xlink" x="0px" y="0px" width="24px"
	 height="25.5px" viewBox="0 0 24 25.5" xml:space="preserve">
	<path class="st0" d="M2.7,7.5l-1.6,5.7c-0.1,0.3,0,0.5,0.2,0.7l0.5,0.5c0,0,0.1,0.1,0.1,0.1c0.2,0.1,0.3,0,0.4-0.2l2.1-3.8l0.7-0.7
		l1.8,1.8c0.2,0.2,0.4,0.3,0.7,0.5l-0.4,1.3c-0.1,0.3,0,0.5,0.2,0.7l0.2,0.2c0.2,0.2,0.4,0.2,0.6,0l0.9-0.9l0,0l0.7-0.7l0,0l0.9-0.9
		c0.2-0.2,0.2-0.4,0-0.6l-0.2-0.2c-0.2-0.2-0.5-0.2-0.7-0.2l-1.3,0.4c-0.1-0.2-0.3-0.5-0.5-0.7L6.4,8.7L7,8l3.8-2.1
		c0,0,0.1,0,0.1-0.1c0.1-0.1,0.1-0.3,0-0.4l-0.5-0.5C10.2,4.7,10,4.7,9.7,4.7L4,6.3l0,0L1.9,4.2C1.6,3.9,0.4,3.3,0.1,3.6
		C-0.2,4,0.3,5.1,0.7,5.4L2.7,7.5L2.7,7.5z"/>
	<path class="st0" d="M13.8,3.5h7.9c1,0,1.7-0.8,1.7-1.7c0-1-0.8-1.7-1.7-1.7h-7.9c-1,0-1.7,0.8-1.7,1.7C12.1,2.7,12.9,3.5,13.8,3.5
		z M20.6,0.8L20.6,0.8H21v1.5h0.7v0.3h-1.1V0.8z M19.1,0.8h1.1v0.3h-0.7v0.4h0.7v0.3h-0.7v0.4h0.8v0.3h-1.2V0.8z M18.9,0.8v0.3h-0.5
		v1.5H18V1.2h-0.5V0.8H18.9z M16.6,0.8c0.6,0,0.9,0.4,0.9,0.9c0,0.6-0.4,1-0.9,1c-0.5,0-0.9-0.4-0.9-0.9C15.7,1.2,16,0.8,16.6,0.8z
		 M13.9,0.8h0.4v0.7H15V0.8h0.4v1.8H15V1.9h-0.7v0.8h-0.4V0.8z"/>
	<path class="st0" d="M16.6,2.3c0.3,0,0.4-0.3,0.4-0.6c0-0.3-0.2-0.6-0.4-0.6c-0.3,0-0.4,0.3-0.4,0.6C16.1,2.1,16.3,2.3,16.6,2.3z"
		/>
	<path class="st0" d="M22.7,23.8V6.8h0.7V4H11.3c0.8,1,1.4,2.3,1.6,3.7h1.6v2.6H13c-0.1,0.6-0.2,1.2-0.5,1.8h2.1v2.6h-3.5v-0.2
		c-1.5,1.7-3.6,2.7-6,2.7c-0.7,0-1.4-0.1-2.1-0.3v7H1.6v1.7H24v-1.7H22.7z M16.2,18.8v5.1H9.4v-5.1H8.5c0-1.8,2-3.2,4.4-3.2
		c2.4,0,4.4,1.4,4.4,3.2H16.2z M20.3,14.6h-3.5V12h3.5V14.6z M20.3,10.3h-3.5V7.6h3.5V10.3z"/>
</svg>
