<!-- Generator: Adobe Illustrator 23.0.3, SVG Export Plug-In  -->
<svg version="1.1" xmlns="http://www.w3.org/2000/svg" xmlns:xlink="http://www.w3.org/1999/xlink" x="0px" y="0px" width="21.8px"
	 height="21.6px" viewBox="0 0 21.8 21.6" xml:space="preserve">
	<path class="st0" d="M16.3,3.4v-3L15,1.5c-0.1,0.1-0.2,0.1-0.3,0.1s-0.2,0-0.3-0.1L12.5,0l-1.8,1.5c-0.2,0.2-0.5,0.2-0.7,0L8.2,0
		L6.3,1.5c-0.2,0.2-0.5,0.2-0.7,0L3.8,0L2,1.5c-0.2,0.2-0.5,0.2-0.7,0L0,0.4v19c0,1.2,1,2.2,2.2,2.2c1.2,0,2.2-1,2.2-2.2
		c0-0.3,0.2-0.5,0.5-0.5h11.3v-5.5c-2.5-0.3-4.5-2.4-4.5-5S13.8,3.7,16.3,3.4z M3.2,5.1h6.9c0.3,0,0.5,0.2,0.5,0.5
		c0,0.3-0.2,0.5-0.5,0.5H3.2c-0.3,0-0.5-0.2-0.5-0.5C2.6,5.3,2.9,5.1,3.2,5.1z M3.2,8.3h5c0.3,0,0.5,0.2,0.5,0.5
		c0,0.3-0.2,0.5-0.5,0.5h-5c-0.3,0-0.5-0.2-0.5-0.5C2.6,8.5,2.9,8.3,3.2,8.3z M3.2,11.5h6.9c0.3,0,0.5,0.2,0.5,0.5
		c0,0.3-0.2,0.5-0.5,0.5H3.2c-0.3,0-0.5-0.2-0.5-0.5C2.6,11.8,2.9,11.5,3.2,11.5z M13.4,14.8c0.3,0,0.5,0.2,0.5,0.5
		c0,0.3-0.2,0.5-0.5,0.5H3.2c-0.3,0-0.5-0.2-0.5-0.5c0-0.3,0.2-0.5,0.5-0.5H13.4z"/>
	<path class="st0" d="M16.9,19.9C16.9,19.9,16.9,19.9,16.9,19.9H5.5c-0.1,0.7-0.4,1.2-0.8,1.7h15c1,0,1.9-0.7,2.2-1.7H16.9
		C16.9,19.9,16.9,19.9,16.9,19.9z"/>
	<path class="st0" d="M16.9,4.4c-2.2,0-4,1.8-4,4c0,2.2,1.8,4,4,4c2.2,0,4-1.8,4-4C20.8,6.2,19,4.4,16.9,4.4z M17.4,7.9
		c0.1,0,0.1,0,0.2,0c0.4,0.1,0.7,0.4,0.8,0.8c0,0.1,0,0.1,0,0.2v0.8c0,0.6-0.5,1-1,1v0.1c0,0.3-0.2,0.5-0.5,0.5
		c-0.3,0-0.5-0.2-0.5-0.5v-0.1c-0.6,0-1-0.5-1-1c0-0.3,0.2-0.5,0.5-0.5s0.5,0.2,0.5,0.5h1V9h-1c-0.6,0-1-0.5-1-1.1V7.2
		c0-0.6,0.4-1,1-1V6c0-0.3,0.2-0.5,0.5-0.5c0.3,0,0.5,0.2,0.5,0.5v0.1c0.6,0,1,0.5,1,1c0,0.3-0.2,0.5-0.5,0.5
		c-0.3,0-0.5-0.2-0.5-0.5h-1v0.7H17.4z"/>
</svg>
