<!-- Generator: Adobe Illustrator 23.0.3, SVG Export Plug-In  -->
<svg version="1.1" xmlns="http://www.w3.org/2000/svg" xmlns:xlink="http://www.w3.org/1999/xlink" x="0px" y="0px" width="24px"
	 height="24px" viewBox="0 0 24 24" xml:space="preserve">
	<path d="M12,0C5.4,0,0,5.4,0,12c0,6.6,5.4,12,12,12c6.6,0,12-5.4,12-12C24,5.4,18.6,0,12,0z M21.7,8.1c-0.7,0.4-1.4,0.8-2.1,1.2
		c-0.2,0.1-0.3,0.2-0.5,0.2c-0.5,0.3-1,0.5-1.5,0.7c-0.1,0-0.2,0.1-0.2,0.1c-0.1,0.1-0.3,0.1-0.4,0.2c-0.6,0.3-1.7,1-2,1.6
		c-0.1,0.2-0.1,0.3-0.2,0.5L14.2,14c-0.3,0.6-0.4,1-0.7,1.7c0,0.1-0.1,0.3-0.2,0.4c-0.1,0.3-0.2,0.6-0.3,0.8l-0.5,1.4
		c-0.1,0.2-0.2,0.3-0.3,0.5l-0.5,0.6c-0.1,0.2-0.3,0.2-0.5,0.1c-0.1,0-0.1-0.1-0.1-0.2c0-0.1,0-0.2,0-0.3c0,0,0-0.1,0-0.1
		c0-0.2,0-0.3-0.1-0.5c0-0.1,0-0.1,0-0.2c-0.1-0.9-0.3-1.9-0.4-2.8c0-0.1,0-0.1,0-0.2c0-0.2,0-0.4-0.1-0.5c0-0.1,0-0.1,0-0.2
		c0-0.3,0-0.5,0-0.8c0,0,0,0,0-0.1c0,0,0,0-0.1,0c0,0,0,0-0.1,0c-3.4,1.4-3.4,1.4-4.7,1.5c-0.1,0-0.2,0-0.3,0c-0.6,0-1.1,0-1.6-0.4
		c0,0,0,0,0,0c-0.1-0.1-0.2-0.2-0.3-0.3c-0.1-0.2-0.2-0.4-0.2-0.6c0,0,0,0,0,0c0.1-0.4-0.1-0.7-0.4-1.1c-0.1-0.1-0.1-0.1-0.1-0.2
		c-0.1-0.2-0.2-0.4-0.3-0.6c-0.1-0.2-0.2-0.4-0.3-0.6c0-0.1-0.1-0.1-0.1-0.2c0,0,0,0,0,0c-0.1-0.2-0.1-0.3-0.1-0.5c0,0,0,0,0,0
		c0.2-0.2,0.4-0.2,0.7-0.2c0,0,0,0,0,0c0.3,0,0.5,0.1,0.7,0.3c0,0,0.1,0.1,0.1,0.1C4,11.1,4.5,11.4,5,11.9c0,0,0.1,0.1,0.1,0.1
		c0.1,0,0.1,0.1,0.1,0.1c0,0,0,0,0,0c0.2,0.1,0.3,0,0.5,0c0,0,0,0,0,0c0.2-0.1,0.4-0.2,0.6-0.3c0.1,0,0.1-0.1,0.2-0.1
		c0.1-0.1,0.3-0.1,0.4-0.2c0.2-0.1,0.4-0.2,0.6-0.3c0.1-0.1,0.2-0.1,0.4-0.2c0.1,0,0.1-0.1,0.2-0.1c0.1,0,0.1,0,0.2-0.1
		c0,0,0.1,0,0.1-0.1c0,0,0,0,0,0c0.2-0.1,0.2-0.3,0.1-0.4c0,0-0.1-0.1-0.1-0.1C8.2,10.1,8.1,10,7.9,9.8c0,0,0,0,0,0
		C7.8,9.7,7.6,9.5,7.5,9.4C7.2,9.2,7,9,6.8,8.8c0,0-0.1-0.1-0.1-0.1C6.6,8.5,6.4,8.4,6.2,8.3C6,8.1,6,8,5.9,7.8c0,0,0,0,0,0
		c0-0.1,0-0.2,0-0.2c0,0,0-0.1,0.1-0.1c0,0,0.1-0.1,0.1-0.1c0,0,0,0,0,0c0.6-0.4,1.4-0.4,2.1-0.3c0,0,0,0,0,0c0.1,0,0.1,0,0.2,0
		c0,0,0,0,0,0c0.4,0.1,0.8,0.2,1.1,0.3c0,0,0.1,0,0.1,0c0.2,0.1,0.5,0.2,0.7,0.2c0.1,0,0.2,0.1,0.3,0.1c0.1,0,0.2,0.1,0.3,0.1
		C11.1,7.9,11.3,8,11.5,8c0.1,0,0.1,0,0.3,0.1l0.5,0.2c0.1,0,0.2,0.1,0.2,0.1c0.1,0,0.1,0,0.2,0.1c0,0,0,0,0,0c0.1,0,0.1,0,0.2,0
		c0.5,0.1,0.8,0.1,1.2-0.2c0.1,0,0.1-0.1,0.2-0.1c0.1-0.1,0.3-0.1,0.4-0.2c0.2-0.1,0.4-0.2,0.6-0.3c0.3-0.1,0.5-0.2,0.8-0.4
		c4.2-2,4.2-2,5.9-0.6c0,0,0,0,0,0c0.3,0.3,0.3,0.3,0.4,0.5c0,0,0,0,0,0C22.3,7.7,22,7.9,21.7,8.1z"/>
	<path d="M11.1,8.5L11.1,8.5c-0.2,0-0.3-0.1-0.5-0.2c0,0-0.1,0-0.1,0c-0.1,0-0.3-0.1-0.4-0.1c-0.1,0-0.1,0-0.2,0
		C9.8,8.1,9.7,8.1,9.6,8C9.1,7.9,8.6,7.7,8.2,7.7c0,0-0.1,0-0.1,0c-0.3,0-0.5,0-0.7,0.1C7.2,7.9,7.2,8.1,7.3,8.2c0,0,0,0,0,0
		c0,0,0,0,0,0c0.2,0.1,0.3,0.3,0.4,0.4C7.8,8.7,7.9,8.8,8,8.9C8.1,9,8.2,9.1,8.3,9.2c0,0,0,0,0.1,0.1c0.1,0.1,0.1,0.1,0.2,0.2
		c0,0,0.1,0.1,0.1,0.1c0,0,0.1,0.1,0.1,0.1c0,0,0,0,0,0C8.9,9.7,9,9.8,9.1,9.7c0,0,0.1,0,0.2-0.1c0,0,0.1,0,0.1,0
		c0.3-0.1,0.6-0.3,1-0.4c0.1,0,0.1-0.1,0.2-0.1C10.6,9,10.7,9,10.8,9c0,0,0.1,0,0.1,0c0.1,0,0.1-0.1,0.2-0.1
		C11.3,8.7,11.2,8.6,11.1,8.5z"/>
	<path d="M21,6.5c-0.1-0.1-0.2-0.1-0.3,0l-0.1,0.1C20.4,6.8,20.2,6.9,20,7l-0.1,0.1c-0.1,0.1-0.1,0.2-0.1,0.3L20,7.6
		c0.1,0.1,0.2,0.1,0.3,0l0.1-0.1c0.2-0.1,0.4-0.2,0.6-0.4L21.1,7c0.1-0.1,0.1-0.2,0.1-0.3L21,6.5z"/>
</svg>
